<?xml version="1.0" encoding="utf-8"?>
<!-- Generator: Adobe Illustrator 27.1.1, SVG Export Plug-In . SVG Version: 6.00 Build 0)  -->
<svg version="1.1" id="Laag_1" xmlns="http://www.w3.org/2000/svg" xmlns:xlink="http://www.w3.org/1999/xlink" x="0px" y="0px"
	 viewBox="0 0 50 50" style="enable-background:new 0 0 50 50;" xml:space="preserve">
<style type="text/css">
	.st0{fill:#88C0BD;}
	.st1{font-family:'RocGrotesk-CondensedBold';}
	.st2{font-size:6.3968px;}
	.st3{fill:#377150;}
	.st4{font-size:29.5238px;}
</style>
<g>
	<text transform="matrix(1 0 0 1 26.0874 16.7665)" class="st0 st1 st2">sur le </text>
	<path class="st0" d="M17.61,33.16c-0.01,0.09-0.01,0.18,0.05,0.27c0.57,0.09,0.57,0.34,0.82,0.59c-0.06,0.12-0.15,0.2-0.26,0.25
		c-0.1,0.05-0.22,0.08-0.32,0.1c-0.41,0.38-0.9,0.14-1.39,0.63c0.12,0.06,0.25,0.11,0.37,0.15c0.37-0.15,0.62,0.59,1.11,0.34
		c0,0.12,0,0.25-0.03,0.37c-0.03,0.12-0.1,0.25-0.24,0.38c-0.11,0.12-0.22,0.24-0.34,0.36c-0.12,0.12-0.24,0.24-0.37,0.37
		c0.06,0.06,0.12,0.12,0.19,0.18c0.07,0.06,0.15,0.12,0.26,0.17c0.21,0.29,0.54,0.08,0.85,0.17c0.1,0.03,0.2,0.09,0.29,0.21
		c0.37,1.48,1.6,0,2.56-0.19c0.16-0.06,0.27-0.14,0.27-0.3c0-0.25-0.49-0.49-0.9-0.57c-0.02-0.11,0-0.18,0.05-0.23
		c0.22-0.21,0.94-0.1,1.12-0.42c0.21-0.26,0.1-0.37-0.05-0.42c-0.32-0.11-0.84,0.01-1.08-0.29c-0.19-0.1-0.38-0.16-0.38-0.29
		c0-0.49,0.98-0.25,0.94-0.69c0.14-0.13,0.19-0.25,0.2-0.35c0.03-0.31-0.37-0.52-0.3-0.79c0,0,0.16,0,0.42,0c1.04,0,3.65,0,3.65,0
		c0.01,0.09,0.01,0.18,0.03,0.28c0.36,0.04,0.41,0.18,0.39,0.36c-0.01,0.09-0.05,0.18-0.08,0.27c-0.08,0.44-0.33,0.44-0.34,0.96
		c0.01,0.09,0,0.19,0,0.29c0.13,0.04,0.22,0.11,0.28,0.18c0.06,0.07,0.09,0.16,0.09,0.25c-0.1,0.12-0.2,0.22-0.29,0.29
		c-0.27,0.23-0.48,0.31-0.51,0.48c-0.01,0.06,0,0.13,0.06,0.22c0.1,0.16,0.54,0.34,0.42,0.6c-0.04,0.09-0.15,0.18-0.36,0.29
		c-0.1,0.02-0.2,0.06-0.28,0.13c-0.14,0.19-0.39,0.44-0.27,0.61c0,0.13,0.02,0.27,0.07,0.42c-0.07,0.14-0.14,0.28-0.21,0.41
		c-0.11,0.19-0.22,0.37-0.34,0.53c-0.06,0.08-0.12,0.17-0.19,0.24c-0.43,0.19-0.92,0.43-1.66,0.43c-0.37,0,0.23,0.28,0.25,0.52
		c0.01,0.08-0.05,0.16-0.23,0.22c-1.99,0.99-3.96,0.5-5.97-0.24c-0.13-0.1-0.24-0.22-0.36-0.36c-0.1-0.09-0.2-0.19-0.3-0.29
		c-0.11-0.11-0.21-0.23-0.31-0.35c0.27-0.73-1.45-0.24-0.79-1.22c0.06-0.13,0.1-0.22,0.15-0.29c0.15-0.21,0.43-0.26,0.43-0.45
		c-0.25-0.49-0.74-0.49-1.22-0.67c-0.1-0.07-0.19-0.15-0.24-0.23c-0.11-0.17-0.08-0.37,0.34-0.65c0.07-0.09,0.22-0.2,0.36-0.31
		s0.26-0.24,0.26-0.36c-0.25-0.49-1.23,0-1.35-0.39c-0.09-0.08-0.18-0.17-0.28-0.23c-0.1-0.07-0.21-0.11-0.33-0.11
		c0.25-0.49,0.98-0.25,1.27-0.7c0.1-0.02,0.15-0.09,0.21-0.16c0.06-0.07,0.12-0.13,0.24-0.13c-0.25-0.25-0.49-0.25-0.52-0.85
		c0,0,0.16,0,0.42,0C15.01,33.16,17.61,33.16,17.61,33.16z"/>
	<text transform="matrix(1 0 0 1 38.9292 32.6463)" class="st3 st1 st4">t</text>
	<text transform="matrix(1 0 0 1 1.6826 32.6463)" class="st3 st1 st4">P</text>
	<path class="st3" d="M17.78,32.82c-0.1-0.56-0.15-1.23-0.15-2.03c0-2.8,0.62-4.1,1.77-4.1s1.74,1.3,1.74,4.1
		c0,0.8-0.05,1.47-0.14,2.03h4.08c0.09-0.62,0.13-1.3,0.13-2.03c0-4.9-2.01-7.47-5.82-7.47c-3.84,0-5.85,2.57-5.85,7.47
		c0,0.73,0.05,1.4,0.13,2.03H17.78z"/>
	<text transform="matrix(1 0 0 1 25.5435 32.8241)" class="st3 st1 st4">n</text>
</g>
</svg>
