<?xml version="1.0" encoding="utf-8"?>
<!-- Generator: Adobe Illustrator 27.1.1, SVG Export Plug-In . SVG Version: 6.00 Build 0)  -->
<svg version="1.1" id="Laag_1" xmlns="http://www.w3.org/2000/svg" xmlns:xlink="http://www.w3.org/1999/xlink" x="0px" y="0px"
	 viewBox="0 0 200 200" style="enable-background:new 0 0 200 200;" xml:space="preserve">
<style type="text/css">
	.st0{fill:#88C0BD;}
	.st1{fill:#377150;}
</style>
<g>
	<g>
		<path class="st0" d="M104.96,62.17h3.07c0,1.27,0.44,1.98,1.53,1.98c0.91,0,1.4-0.49,1.4-1.27c0-0.57-0.23-0.91-0.65-1.12
			s-1.04-0.39-1.9-0.62c-1.01-0.29-1.92-0.62-2.5-1.12c-0.55-0.47-0.96-1.33-0.96-2.39c0-2.37,1.72-4.08,4.73-4.08
			c3.09,0,4.52,1.33,4.52,4.6h-3.04c0-1.43-0.36-2.05-1.4-2.05c-0.81,0-1.27,0.55-1.27,1.25c0,0.7,0.23,0.96,0.62,1.17
			c0.42,0.23,1.2,0.44,2.05,0.68c0.96,0.26,1.79,0.52,2.42,1.04s0.96,1.38,0.96,2.39c0,2.31-1.43,4.08-4.89,4.08
			C106.18,66.69,104.96,64.79,104.96,62.17z"/>
		<path class="st0" d="M115.75,62.04v-8.35h3.59v7.8c0,1.35,0.47,1.95,1.35,1.95c1.2,0,1.77-1.27,1.77-3.33v-6.42h3.59v12.84h-3.59
			c0.08-0.68,0.18-1.98,0.21-3.04h-0.05c-0.39,2.13-1.38,3.2-3.25,3.2C116.92,66.69,115.75,65.03,115.75,62.04z"/>
		<path class="st0" d="M127.58,53.69h3.59l-0.16,3.33h0.05c0.36-2,1.09-3.48,2.96-3.48c1.95,0,2.73,1.64,2.73,4.37
			c0,1.25-0.08,2.5-0.13,3.07h-3.2c0.05-0.57,0.1-1.59,0.1-2.26c0-1.4-0.29-1.92-0.91-1.92c-0.94,0-1.46,1.3-1.46,3.93v5.82h-3.59
			V53.69z"/>
		<path class="st0" d="M142.38,48.7h3.59v17.84h-3.59V48.7z"/>
		<path class="st0" d="M156.83,60.76h-5.93c0.08,2.39,0.57,3.17,1.51,3.17c0.83,0,1.25-0.44,1.27-2.11h3.15
			c-0.03,3.28-1.56,4.86-4.58,4.86c-3.54,0-4.94-2.44-4.94-6.47c0-4.84,1.87-6.68,5.04-6.68c2.86,0,4.47,1.64,4.47,5.98V60.76z
			 M153.68,58.45c0-1.51-0.39-2.16-1.27-2.16c-0.86,0-1.33,0.57-1.46,2.47h2.73V58.45z"/>
	</g>
	<path class="st0" d="M69.98,133.18c-0.03,0.35-0.04,0.71,0.22,1.08c2.32,0.38,2.32,1.38,3.32,2.38c-0.25,0.5-0.62,0.81-1.04,1.02
		c-0.42,0.21-0.88,0.32-1.31,0.42c-1.65,1.56-3.65,0.56-5.65,2.56c0.5,0.25,1,0.44,1.49,0.6c1.51-0.6,2.51,2.4,4.51,1.4
		c0,0.5,0,1-0.13,1.5c-0.13,0.5-0.43,1.02-0.99,1.54c-0.44,0.48-0.9,0.97-1.39,1.46s-0.98,0.99-1.48,1.49
		c0.25,0.25,0.5,0.5,0.77,0.74c0.27,0.24,0.61,0.48,1.07,0.69c0.87,1.18,2.21,0.34,3.46,0.7c0.42,0.12,0.82,0.37,1.2,0.86
		c1.5,6.01,6.5,0.01,10.41-0.76c0.65-0.24,1.09-0.57,1.09-1.24c0-1-2-2-3.66-2.3c-0.1-0.43,0-0.73,0.22-0.94
		c0.89-0.86,3.81-0.41,4.56-1.7c0.87-1.06,0.42-1.5-0.22-1.72c-1.29-0.43-3.4,0.05-4.37-1.18c-0.78-0.41-1.53-0.66-1.53-1.16
		c0-2,4-1,3.8-2.82c0.55-0.54,0.77-1.01,0.81-1.44c0.1-1.27-1.51-2.1-1.2-3.2c0,0,0.66,0,1.72,0c4.24,0,14.84,0,14.84,0
		c0.03,0.37,0.05,0.74,0.12,1.13c1.45,0.16,1.68,0.75,1.57,1.45c-0.06,0.35-0.2,0.73-0.32,1.11c-0.34,1.77-1.34,1.77-1.38,3.89
		c0.03,0.37,0.01,0.77,0,1.17c0.51,0.18,0.89,0.43,1.14,0.74c0.25,0.3,0.38,0.65,0.38,1.01c-0.41,0.49-0.82,0.88-1.19,1.19
		c-1.11,0.94-1.96,1.24-2.09,1.97c-0.04,0.24,0,0.53,0.25,0.91c0.41,0.67,2.2,1.4,1.7,2.44c-0.17,0.35-0.59,0.73-1.46,1.16
		c-0.42,0.07-0.8,0.25-1.12,0.52c-0.57,0.77-1.57,1.77-1.09,2.48c0.01,0.54,0.09,1.12,0.29,1.72c-0.27,0.57-0.55,1.12-0.85,1.65
		c-0.43,0.77-0.9,1.49-1.39,2.17c-0.25,0.34-0.51,0.67-0.79,0.99c-1.74,0.76-3.74,1.76-6.74,1.76c-1.5,0,0.94,1.12,1.01,2.1
		c0.02,0.33-0.21,0.64-0.93,0.88c-8.08,4.01-16.08,2.01-24.26-0.99c-0.52-0.43-1-0.91-1.46-1.45c-0.42-0.37-0.83-0.75-1.22-1.16
		c-0.44-0.45-0.85-0.93-1.25-1.42c1.11-2.96-5.89-0.96-3.23-4.95c0.25-0.54,0.4-0.91,0.6-1.2c0.61-0.87,1.74-1.06,1.74-1.81
		c-1-2-3-2-4.94-2.71c-0.39-0.29-0.76-0.59-0.99-0.93c-0.46-0.68-0.34-1.49,1.4-2.62c0.27-0.37,0.9-0.8,1.47-1.27
		s1.07-0.97,1.07-1.47c-1-2-5,0-5.5-1.59c-0.38-0.33-0.75-0.68-1.15-0.95c-0.41-0.27-0.84-0.46-1.34-0.46c1-2,4-1,5.16-2.84
		c0.42-0.08,0.63-0.37,0.86-0.64c0.23-0.27,0.48-0.52,0.98-0.52c-1-1-2-1-2.1-3.46c0,0,0.66,0,1.72,0
		C59.38,133.18,69.98,133.18,69.98,133.18z"/>
	<g>
		<path class="st1" d="M163.57,109.72V86.2h-6.36V71.8h4.92c2.52,0,3.48-1.32,3.84-5.4l0.6-8.04h13.56V71.8h13.2v14.4h-13.2v23.16
			c0,6.24,1.68,8.16,6.84,8.16c2.88,0,4.68-0.24,5.52-0.36v13.56c-0.96,0.36-5.04,1.08-9.72,1.08
			C168.37,131.8,163.57,123.4,163.57,109.72z"/>
	</g>
	<g>
		<path class="st1" d="M9.06,52.12h22.92C48.9,52.12,56.7,61,56.7,80.68c0,19.2-7.08,28.2-22.68,28.2h-7.2v22.2H9.06V52.12z
			 M32.82,96.16c5.04,0,7.32-4.44,7.32-14.16c0-9.96-2.52-14.52-8.04-14.52h-5.28v28.68H32.82z"/>
	</g>
	<path class="st1" d="M70.66,131.8c-0.4-2.27-0.61-5-0.61-8.23c0-11.4,2.52-16.68,7.2-16.68s7.08,5.28,7.08,16.68
		c0,3.24-0.2,5.96-0.58,8.23h16.6c0.36-2.54,0.54-5.28,0.54-8.23c0-19.92-8.16-30.36-23.64-30.36c-15.6,0-23.76,10.44-23.76,30.36
		c0,2.96,0.18,5.7,0.54,8.23H70.66z"/>
	<g>
		<path class="st1" d="M105.69,72.52h16.56l-0.72,14.16h0.24c1.92-9.24,6-14.88,16.08-14.88c10.44,0,15.48,7.56,15.48,20.16v39.84
			h-16.56V95.08c0-5.64-2.04-8.28-6.24-8.28c-5.28,0-8.28,4.8-8.28,13.32v31.68h-16.56V72.52z"/>
	</g>
</g>
</svg>
