<?xml version="1.0" encoding="utf-8"?>
<!-- Generator: Adobe Illustrator 27.1.1, SVG Export Plug-In . SVG Version: 6.00 Build 0)  -->
<svg version="1.1" id="Laag_1" xmlns="http://www.w3.org/2000/svg" xmlns:xlink="http://www.w3.org/1999/xlink" x="0px" y="0px"
	 viewBox="0 0 200 200" style="enable-background:new 0 0 200 200;" xml:space="preserve">
<style type="text/css">
	.st0{fill:#FFFFFF;}
</style>
<path class="st0" d="M195.73,90.66c-10.24-0.41-26.09-1.27-35.75-2.92c-5.28-0.9-7.44-1.81-8.62-2.37
	c-5.37-2.55-6.39-5.4-13.13-8.51c-1.85-0.85-3.45-1.56-5.77-2.09c-3.71-0.85-5.98-0.33-11.37-2.3c-8.78-3.21-8.07-6.87-16.26-10.33
	c-6.83-2.88-8.4-0.79-21.75-2.42c-14.06-1.71-25.71-5.05-25.71-5.05c-9-2.55-14.23-4.94-19.34-2.2c-2.5,1.34-2.32,2.5-6.37,5.49
	c-3.17,2.35-9.16,4.76-12.09,6.37c-6.5,3.58-9.47,9.9-10.3,11.66c-2.61,5.56-2.69,10.84-2.42,14.05
	c62.99,0.29,125.99,0.59,188.98,0.88C195.74,90.88,195.69,90.76,195.73,90.66z"/>
</svg>
