<?xml version="1.0" encoding="UTF-8"?>
<svg id="Layer_1" data-name="Layer 1" xmlns="http://www.w3.org/2000/svg" viewBox="0 0 940.82 188.29">
  <defs>
    <style>
      .cls-1 {
        fill: #fff;
      }
    </style>
  </defs>
  <path class="cls-1" d="M940.82,188.29c-16.68-.42-147.19-3.88-214.47-15.32-25.03-4.26-35.28-8.59-40.85-11.23-25.46-12.1-30.3-25.62-62.23-40.34-8.76-4.04-16.36-7.38-27.35-9.91-17.58-4.05-28.34-1.56-53.9-10.92-41.6-15.23-38.27-32.58-77.08-48.96-32.39-13.67-39.84-3.75-103.12-11.46-66.63-8.12-121.87-23.96-121.87-23.96C197.29,4.11,172.47-7.21,148.28,5.77c-11.87,6.37-11,11.83-30.21,26.04-15.03,11.12-43.43,22.58-57.29,30.21C29.96,78.98,15.89,108.95,11.97,117.31-.4,143.67-.77,168.67,.48,183.89c313.44,1.47,626.89,2.93,940.33,4.4Z"/>
</svg>