<?xml version="1.0" encoding="UTF-8"?>
<svg id="Layer_1" data-name="Layer 1" xmlns="http://www.w3.org/2000/svg" viewBox="0 0 718.39 185.34">
  <defs>
    <style>
      .cls-1 {
        fill: #fff;
      }
    </style>
  </defs>
  <path class="cls-1" d="M718.39,185.34c-7.61-3.62-18.52-9.31-32.9-19.2-12.86-8.85-45.61-33.57-62.23-41.44-8.76-4.15-16.36-7.58-27.35-10.18-17.58-4.16-28.34-1.61-53.9-11.22-41.6-15.64-38.27-33.47-77.08-50.29-32.39-14.04-39.84-3.85-103.12-11.77-66.63-8.34-121.87-24.61-121.87-24.61C197.29,4.22,172.47-7.41,148.28,5.93c-11.87,6.54-11,12.15-30.21,26.75-15.03,11.42-43.43,23.2-57.29,31.03C29.95,81.13,15.89,111.92,11.97,120.5,.49,145.62-.66,169.53,.24,185.34H718.39Z"/>
</svg>