<?xml version="1.0" encoding="UTF-8"?>
<svg id="Layer_1" data-name="Layer 1" xmlns="http://www.w3.org/2000/svg" viewBox="0 0 718.39 185.34">
  <defs>
    <style>
      .cls-1 {
        fill: #fff;
      }
    </style>
  </defs>
  <path class="cls-1" d="M0,0C7.61,3.62,18.52,9.31,32.9,19.2c12.86,8.85,45.61,33.57,62.23,41.44,8.76,4.15,16.36,7.58,27.35,10.18,17.58,4.16,28.34,1.61,53.9,11.22,41.6,15.64,38.27,33.47,77.08,50.29,32.39,14.04,39.84,3.85,103.12,11.77,66.63,8.34,121.87,24.61,121.87,24.61,42.65,12.41,67.47,24.04,91.66,10.7,11.87-6.54,11-12.15,30.21-26.75,15.03-11.42,43.43-23.2,57.29-31.03,30.82-17.42,44.89-48.21,48.81-56.8,11.48-25.12,12.62-49.03,11.73-64.84H0Z"/>
</svg>